<svg width="60" height="60" viewBox="0 0 60 60" fill="none" xmlns="http://www.w3.org/2000/svg">
<path fill-rule="evenodd" clip-rule="evenodd" d="M0 13.75C0 6.15609 6.15609 0 13.75 0H29.6875H47.1875V10.3125C47.1875 11.5206 48.1669 12.5 49.375 12.5H59.375V36.25L48.125 47.5L34.6875 60H13.125C5.87626 60 0 54.1237 0 46.875V13.75ZM13.75 16.5625C13.75 15.1818 14.8693 14.0625 16.25 14.0625H43.125C44.5057 14.0625 45.625 15.1818 45.625 16.5625V43.4375C45.625 44.8182 44.5057 45.9375 43.125 45.9375H16.25C14.8693 45.9375 13.75 44.8182 13.75 43.4375V16.5625ZM59.6875 48.125H47.8125V60H59.6875V48.125Z" fill="#EB5939"/>
</svg>
